<svg width="88" height="99" viewBox="0 0 88 99" fill="none" xmlns="http://www.w3.org/2000/svg">
<path d="M41.5867 52.5526L38.236 63.2819C38.077 63.7937 38.0413 64.3359 38.1316 64.8642C38.222 65.3925 38.4359 65.8919 38.756 66.3218C39.076 66.7518 39.4931 67.1 39.9733 67.3381C40.4535 67.5762 40.9831 67.6975 41.5191 67.692H46.4809C48.8095 67.692 50.451 65.4514 49.764 63.2785L46.4132 52.5492C45.6923 50.1766 42.3415 50.1766 41.5867 52.5492M35.2575 72.0345C37.7858 73.3545 40.7981 74.1059 44 74.1059C47.2357 74.1059 50.2141 73.3545 52.7424 72.0345C53.6089 71.5945 54.5363 72.5354 53.9914 73.3545C52.8976 75.0013 51.4122 76.3511 49.6684 77.2826C47.9247 78.2142 45.977 78.6984 44 78.692C42.023 78.6984 40.0753 78.2142 38.3315 77.2826C36.5877 76.3511 35.1024 75.0013 34.0086 73.3545C33.4671 72.5692 34.3944 71.5945 35.2575 72.0345ZM28.9114 45.3535C24.8024 45.3535 21.3298 48.1966 20.3584 52.0111C20.296 52.2676 20.2931 52.535 20.3497 52.7928C20.4064 53.0507 20.5213 53.2921 20.6855 53.4988C20.8498 53.7055 21.059 53.8719 21.2974 53.9854C21.5358 54.0989 21.7969 54.1564 22.0609 54.1535H24.7686C24.5388 53.3176 24.5052 52.4399 24.6702 51.5888C24.8352 50.7378 25.1945 49.9363 25.72 49.2468C26.2456 48.5573 26.9232 47.9985 27.7001 47.6138C28.477 47.2291 29.3323 47.0289 30.1992 47.0289C31.0661 47.0289 31.9214 47.2291 32.6983 47.6138C33.4752 47.9985 34.1528 48.5573 34.6784 49.2468C35.2039 49.9363 35.5632 50.7378 35.7282 51.5888C35.8933 52.4399 35.8596 53.3176 35.6298 54.1535H36.1307C36.3436 54.1549 36.5541 54.1094 36.7473 54.0202C36.9405 53.931 37.1117 53.8004 37.2488 53.6375C37.3858 53.4747 37.4852 53.2836 37.54 53.078C37.5948 52.8723 37.6036 52.6571 37.5658 52.4477C37.1641 50.4478 36.0827 48.6486 34.5052 47.3555C32.9276 46.0624 30.9512 45.355 28.9114 45.3535ZM59.0886 45.3535C63.1975 45.3535 66.6701 48.1966 67.6415 52.0111C67.7039 52.2676 67.7069 52.535 67.6502 52.7928C67.5935 53.0507 67.4787 53.2921 67.3144 53.4988C67.1502 53.7055 66.9409 53.8719 66.7025 53.9854C66.4642 54.0989 66.203 54.1564 65.9391 54.1535H63.2314C63.4634 53.3154 63.4982 52.435 63.3331 51.5812C63.1679 50.7273 62.8073 49.9234 62.2794 49.2323C61.7516 48.5411 61.0709 47.9816 60.2906 47.5976C59.5103 47.2136 58.6518 47.0155 57.7821 47.0188C57.0422 47.0152 56.3089 47.1586 55.6249 47.4408C54.9408 47.7231 54.3197 48.1384 53.7976 48.6627C53.2755 49.1871 52.8627 49.8099 52.5834 50.4951C52.3041 51.1803 52.1637 51.9142 52.1704 52.6542C52.1704 53.1867 52.2381 53.6865 52.3735 54.1535H51.8692C51.6564 54.1549 51.4459 54.1094 51.2526 54.0202C51.0594 53.931 50.8882 53.8004 50.7512 53.6375C50.6142 53.4747 50.5147 53.2836 50.4599 53.078C50.4051 52.8723 50.3963 52.6571 50.4341 52.4477C50.8299 50.4449 51.9096 48.642 53.4885 47.3478C55.0674 46.0536 57.0471 45.3486 59.0886 45.3535Z" fill="white"/>
<path d="M30.2145 49.4528C30.7675 49.4514 31.3115 49.593 31.7936 49.864C32.2756 50.135 32.6794 50.5262 32.9656 50.9994C33.2518 51.4726 33.4106 52.0118 33.4267 52.5646C33.4429 53.1174 33.3157 53.6649 33.0576 54.154H27.3748C27.1391 53.6891 27.014 53.1759 27.0093 52.6547C27.0093 52.0725 27.165 51.5242 27.4391 51.0537C27.5559 51.2377 27.7297 51.3784 27.9339 51.4544C28.1381 51.5304 28.3616 51.5375 28.5703 51.4746C28.7789 51.4117 28.9612 51.2823 29.0895 51.1061C29.2177 50.9298 29.2847 50.7165 29.2803 50.4987C29.2808 50.3514 29.2493 50.2058 29.1879 50.072C29.1266 49.9382 29.0368 49.8193 28.925 49.7236C29.3315 49.5453 29.7706 49.4531 30.2145 49.4528ZM55.0813 50.8777C54.728 51.403 54.5395 52.0217 54.5397 52.6547C54.5397 53.186 54.6751 53.687 54.912 54.154H60.5914C60.8976 53.5758 61.0194 52.9177 60.9406 52.2682C60.8618 51.6187 60.5861 51.0089 60.1505 50.5206C59.715 50.0324 59.1404 49.6891 58.5041 49.537C57.8678 49.3848 57.2001 49.431 56.5908 49.6694C56.7661 49.7933 56.8977 49.9696 56.9666 50.1729C57.0355 50.3762 57.0381 50.5961 56.9742 50.8011C56.9103 51.006 56.7831 51.1854 56.6108 51.3135C56.4385 51.4416 56.2301 51.5118 56.0154 51.514C55.8142 51.5125 55.6179 51.4512 55.4516 51.3379C55.2853 51.2246 55.1564 51.0644 55.0813 50.8777ZM63.2179 35.1427C65.164 35.7553 66.4502 36.7774 67.5569 37.7387C67.907 38.0439 68.1215 38.4756 68.1533 38.939C68.185 39.4023 68.0314 39.8593 67.7262 40.2094C67.421 40.5595 66.9892 40.774 66.5258 40.8058C66.0625 40.8375 65.6055 40.6839 65.2554 40.3787C64.2637 39.5122 63.4176 38.8759 62.1653 38.4833C60.8859 38.0771 59.0277 37.8876 55.9917 38.2565C55.7609 38.2904 55.5256 38.2779 55.2998 38.2195C55.0739 38.1612 54.8619 38.0583 54.6764 37.9169C54.4909 37.7755 54.3355 37.5984 54.2194 37.396C54.1033 37.1936 54.0289 36.9701 54.0004 36.7386C53.972 36.507 53.9901 36.2721 54.0538 36.0477C54.1175 35.8232 54.2254 35.6138 54.3712 35.4317C54.517 35.2495 54.6977 35.0984 54.9028 34.9872C55.1079 34.8759 55.3331 34.8068 55.5653 34.7839C58.8923 34.3777 61.3022 34.5402 63.2179 35.1427ZM21.5397 37.671L21.5363 37.6777C21.1692 37.9618 20.93 38.3802 20.8712 38.8407C20.8125 39.3012 20.9392 39.7661 21.2233 40.1333C21.5074 40.5004 21.9257 40.7397 22.3862 40.7984C22.8467 40.8571 23.3117 40.7305 23.6788 40.4463L23.6957 40.4328L23.7973 40.3583C23.8988 40.2861 24.0567 40.1846 24.2711 40.0537C26.9138 38.5175 29.9863 37.8875 33.0203 38.2599C33.2486 38.2881 33.4801 38.2711 33.7018 38.2098C33.9235 38.1486 34.1309 38.0442 34.3122 37.9028C34.4936 37.7614 34.6453 37.5856 34.7587 37.3856C34.8721 37.1855 34.945 36.965 34.9733 36.7368C35.0015 36.5086 34.9845 36.277 34.9232 36.0553C34.8619 35.8337 34.7576 35.6263 34.6162 35.4449C34.4748 35.2636 34.299 35.1118 34.0989 34.9984C33.8989 34.885 33.6784 34.8121 33.4502 34.7839C29.6429 34.3166 25.7875 35.1134 22.4773 37.0516C22.1848 37.228 21.8992 37.4154 21.621 37.6134L21.5668 37.654L21.5465 37.6676L21.5397 37.671Z" fill="white"/>
<path d="M82.6354 20.5446C80.8692 17.4307 78.0242 15.071 74.6375 13.9108C71.0871 12.6923 68.0409 10.3569 66.1015 7.14154C64.8017 4.97121 62.9633 3.17338 60.7646 1.9222C58.5658 0.67102 56.0812 0.00890729 53.5514 0C51.5071 0 49.5677 0.44 47.7942 1.18462C45.3843 2.23385 42.6732 2.23385 40.2634 1.18462C38.43 0.415789 36.4637 0.0133482 34.4757 0C29.2194 0 24.6332 2.77539 22.0203 6.93846C19.9887 10.1969 16.9093 12.6676 13.288 13.9446C12.7329 14.1409 12.1846 14.3034 11.6397 14.4692C8.86769 15.2985 6.21415 16.104 3.38462 20.5446C4.03478e-07 25.8585 -0.406153 32.0523 2.60615 36.4862C3.71292 38.1108 4.31539 40.04 4.31539 42.0031L4.31877 44.2708C2.95594 45.5382 1.86906 47.0729 1.12598 48.7792C0.382902 50.4855 -0.00040272 52.3266 3.17509e-07 54.1877C3.17509e-07 58.1172 1.672 61.6542 4.34585 64.1283C4.31651 65.2994 4.27815 66.4716 4.23077 67.6449C4.23077 71.4831 7.36154 75.0403 10.9695 77.572C12.6068 83.502 16.1453 88.7305 21.0418 92.4548C25.9382 96.1791 31.9217 98.1931 38.0735 98.1877H49.9772C56.1365 98.1927 62.1268 96.1734 67.026 92.4404C71.9252 88.7074 75.4618 83.4678 77.0914 77.528C80.6757 74.9963 83.7692 71.4628 83.7692 67.6449L83.7625 64.0234C85.1006 62.7583 86.1665 61.2335 86.8951 59.5424C87.6238 57.8512 87.9997 56.0291 88 54.1877C87.9998 52.3188 87.6127 50.4701 86.8631 48.7581C86.1134 47.0461 85.0173 45.5079 83.644 44.2403V42.0031C83.644 40.04 84.2465 38.1108 85.3498 36.4862C88.5314 31.9169 85.58 25.7231 82.6354 20.5446ZM15.2308 38.2462C15.2308 28.3428 23.3505 20.3077 33.1354 20.3077H41.1671C41.3273 20.3103 41.4831 20.3602 41.615 20.4511C41.7469 20.5421 41.8489 20.67 41.9083 20.8188L41.932 20.8797L41.9591 20.9406C43.4227 24.2424 45.8119 27.0492 48.8376 29.0212C51.8633 30.9933 55.3958 32.0462 59.0074 32.0523H67.7634C69.1976 32.1422 70.5462 32.7656 71.544 33.7997C72.5418 34.8338 73.1165 36.2038 73.1551 37.6403L72.5932 47.0089L75.5954 47.5132C77.2365 47.7891 78.7185 48.6597 79.7584 49.959C80.7982 51.2582 81.3231 52.895 81.2327 54.5567C81.1422 56.2184 80.4429 57.7885 79.2681 58.9672C78.0934 60.146 76.5257 60.8507 74.8643 60.9468L71.8689 61.1194L71.1243 72.9791C70.4266 78.0908 67.8993 82.7762 64.0108 86.1668C60.1223 89.5574 55.1364 91.4233 49.9772 91.4185H38.0769C32.9156 91.4247 27.9272 89.5587 24.0372 86.1665C20.1471 82.7744 17.6194 78.0864 16.9231 72.9723L16.1446 61.1126L13.1526 60.9434C11.5045 60.8477 9.94818 60.1531 8.77643 58.9902C7.60467 57.8273 6.89828 56.2762 6.79015 54.6289C6.68201 52.9816 7.1796 51.3515 8.18929 50.0454C9.19898 48.7393 10.6512 47.8472 12.2726 47.5369L13.1323 47.3745L15.2308 47.0665V38.2462Z" fill="white"/>
</svg>
