<svg width="115" height="114" viewBox="0 0 115 114" fill="none" xmlns="http://www.w3.org/2000/svg">
<path d="M76.4564 92.2064H38.6953M38.6953 80.6374H76.4448M105.626 93.9999H108.05C109.829 93.9999 111.266 92.5887 111.266 90.8267V81.767C111.266 80.0136 109.832 78.5937 108.061 78.5937H105.638M94.3385 103.255H102.425C102.846 103.256 103.262 103.175 103.651 103.016C104.04 102.857 104.394 102.624 104.691 102.329C104.989 102.035 105.224 101.685 105.385 101.299C105.545 100.914 105.627 100.501 105.626 100.085V72.5204C105.629 71.6793 105.294 70.8717 104.695 70.275C104.096 69.6784 103.283 69.3416 102.433 69.3385H94.3501M9.50227 94.0114H7.09032C6.66952 94.013 6.25255 93.9324 5.86319 93.7743C5.47384 93.6162 5.11975 93.3838 4.82112 93.0902C4.52249 92.7966 4.28518 92.4476 4.12274 92.0632C3.9603 91.6788 3.87591 91.2664 3.87439 90.8497V81.767C3.87439 80.0079 5.2995 78.5937 7.09032 78.5937H9.50227M20.8016 103.255H12.7037C11.8546 103.255 11.0403 102.921 10.4399 102.327C9.83957 101.732 9.50227 100.926 9.50227 100.085V72.5204C9.50227 70.7613 10.9274 69.3385 12.7066 69.3385H20.7813M49.2487 70.6751H76.4448M38.6837 67.5766L43.1274 63.1559M49.2516 48.9569H87.7093M27.8459 48.4999L31.9383 52.5642L43.1274 41.4291M49.2516 27.2301H87.7093M27.8459 26.7703L31.9383 30.8345L43.1274 19.711M76.4477 101.628H38.6924M15.1185 69.3356V10.8237C15.1185 7.30268 17.963 4.46863 21.4837 4.46863H93.668C97.2003 4.46863 100.042 7.29406 100.042 10.8237V69.3385M91.1458 62.5696H79.6578C77.8873 62.5696 76.4535 63.9895 76.4535 65.7428V106.851C76.452 107.268 76.5338 107.681 76.6943 108.067C76.8548 108.453 77.0907 108.803 77.3886 109.098C77.6865 109.393 78.0403 109.627 78.4298 109.786C78.8192 109.945 79.2366 110.026 79.6578 110.024H91.1429C91.5641 110.026 91.9815 109.945 92.3709 109.786C92.7604 109.627 93.1142 109.393 93.4121 109.098C93.71 108.803 93.9459 108.453 94.1064 108.067C94.2669 107.681 94.3487 107.268 94.3472 106.851V65.7543C94.3487 65.3376 94.2674 64.9246 94.1077 64.5391C93.9481 64.1535 93.7134 63.8028 93.4169 63.5071C93.1204 63.2114 92.768 62.9764 92.3799 62.8155C91.9917 62.6546 91.5753 62.5711 91.1545 62.5696H91.1458ZM23.9943 62.5696H35.4707C37.2586 62.5696 38.6837 63.9808 38.6837 65.7543V106.851C38.6852 107.269 38.6031 107.683 38.4421 108.069C38.281 108.455 38.0443 108.806 37.7455 109.101C37.4467 109.396 37.0919 109.63 36.7014 109.788C36.3109 109.947 35.8926 110.027 35.4707 110.024H24.0059C22.2354 110.024 20.8016 108.604 20.8016 106.851V65.7543C20.8016 63.9923 22.2296 62.5696 24.0059 62.5696H23.9943Z" stroke="#FD6751" stroke-width="7.343" stroke-linecap="round" stroke-linejoin="round"/>
</svg>
