<svg xmlns="http://www.w3.org/2000/svg" xmlns:xlink="http://www.w3.org/1999/xlink" width="500" zoomAndPan="magnify" viewBox="0 0 375 44.999999" height="60" preserveAspectRatio="xMidYMid meet" version="1.0"><defs><g/><clipPath id="0907d7653f"><path d="M 78 5.070312 L 83 5.070312 L 83 41 L 78 41 Z M 78 5.070312 " clip-rule="nonzero"/></clipPath><clipPath id="ee5c43625c"><path d="M 87 17 L 96.789062 17 L 96.789062 29 L 87 29 Z M 87 17 " clip-rule="nonzero"/></clipPath><clipPath id="e5bd4151bd"><path d="M 54 5.070312 L 58 5.070312 L 58 41 L 54 41 Z M 54 5.070312 " clip-rule="nonzero"/></clipPath><clipPath id="9e10b7228a"><path d="M 39.71875 17 L 49 17 L 49 29 L 39.71875 29 Z M 39.71875 17 " clip-rule="nonzero"/></clipPath></defs><g fill="#fd6751" fill-opacity="1"><g transform="translate(0.840216, 42.865437)"><g><path d="M 13.421875 0 L 13.421875 -42.171875 L 22.6875 -42.171875 L 22.6875 0 Z M 1.15625 -34.4375 L 1.15625 -42.171875 L 35.015625 -42.171875 L 35.015625 -34.4375 Z M 1.15625 -34.4375 "/></g></g></g><g fill="#fd6751" fill-opacity="1"><g transform="translate(48.197344, 42.865437)"><g/></g></g><g fill="#fd6751" fill-opacity="1"><g transform="translate(73.944199, 42.865437)"><g/></g></g><g fill="#fd6751" fill-opacity="1"><g transform="translate(99.691202, 42.865437)"><g><path d="M 4.53125 0 L 4.53125 -42.171875 L 13.734375 -42.171875 L 13.734375 0 Z M 10.921875 0 L 10.921875 -7.546875 L 36.796875 -7.546875 L 36.796875 0 Z M 10.921875 -17.890625 L 10.921875 -24.71875 L 33.609375 -24.71875 L 33.609375 -17.890625 Z M 10.921875 -34.6875 L 10.921875 -42.171875 L 36.671875 -42.171875 L 36.671875 -34.6875 Z M 10.921875 -34.6875 "/></g></g></g><g fill="#fd6751" fill-opacity="1"><g transform="translate(150.097738, 42.865437)"><g><path d="M 4.53125 0 L 4.53125 -42.171875 L 21.65625 -42.171875 C 23.695312 -42.171875 25.613281 -42.007812 27.40625 -41.6875 C 29.195312 -41.363281 30.828125 -40.882812 32.296875 -40.25 C 33.765625 -39.613281 35.039062 -38.804688 36.125 -37.828125 C 37.21875 -36.847656 38.039062 -35.6875 38.59375 -34.34375 C 39.144531 -33 39.421875 -31.472656 39.421875 -29.765625 C 39.421875 -28.273438 39.195312 -26.929688 38.75 -25.734375 C 38.300781 -24.546875 37.609375 -23.492188 36.671875 -22.578125 C 35.734375 -21.671875 34.550781 -20.925781 33.125 -20.34375 C 31.695312 -19.769531 30.046875 -19.378906 28.171875 -19.171875 L 28.171875 -18.265625 C 30.347656 -18.015625 32.09375 -17.503906 33.40625 -16.734375 C 34.726562 -15.972656 35.757812 -14.929688 36.5 -13.609375 C 37.25 -12.285156 37.90625 -10.644531 38.46875 -8.6875 L 40.953125 0 L 30.796875 0 L 28.875 -7.984375 C 28.488281 -9.691406 27.929688 -11.035156 27.203125 -12.015625 C 26.484375 -12.992188 25.582031 -13.671875 24.5 -14.046875 C 23.414062 -14.429688 22.109375 -14.625 20.578125 -14.625 L 13.734375 -14.625 L 13.734375 0 Z M 13.734375 -21.59375 L 19.671875 -21.59375 C 20.398438 -21.59375 21.210938 -21.613281 22.109375 -21.65625 C 23.003906 -21.695312 23.90625 -21.820312 24.8125 -22.03125 C 25.726562 -22.25 26.5625 -22.59375 27.3125 -23.0625 C 28.0625 -23.53125 28.679688 -24.191406 29.171875 -25.046875 C 29.660156 -25.898438 29.90625 -26.984375 29.90625 -28.296875 C 29.90625 -29.660156 29.671875 -30.769531 29.203125 -31.625 C 28.734375 -32.476562 28.132812 -33.140625 27.40625 -33.609375 C 26.6875 -34.078125 25.921875 -34.414062 25.109375 -34.625 C 24.296875 -34.84375 23.523438 -34.972656 22.796875 -35.015625 C 22.078125 -35.054688 21.503906 -35.078125 21.078125 -35.078125 L 13.734375 -35.078125 Z M 13.734375 -21.59375 "/></g></g></g><g fill="#fd6751" fill-opacity="1"><g transform="translate(204.273513, 42.865437)"><g><path d="M 1.09375 0 L 15.46875 -42.171875 L 28.8125 -42.171875 L 43.25 0 L 33.21875 0 L 22.625 -34.890625 L 21.71875 -34.890625 L 11.046875 0 Z M 9.140625 -8.234375 L 9.140625 -14.5625 L 36.484375 -14.5625 L 36.484375 -8.234375 Z M 9.140625 -8.234375 "/></g></g></g><g fill="#fd6751" fill-opacity="1"><g transform="translate(259.790877, 42.865437)"><g><path d="M 4.53125 0 L 4.53125 -42.171875 L 13.734375 -42.171875 L 13.734375 0 Z M 8.875 -15.78125 L 8.875 -23.3125 L 33.28125 -23.3125 L 33.28125 -15.78125 Z M 8.875 -34.3125 L 8.875 -42.171875 L 35.65625 -42.171875 L 35.65625 -34.3125 Z M 8.875 -34.3125 "/></g></g></g><g fill="#fd6751" fill-opacity="1"><g transform="translate(308.408634, 42.865437)"><g><path d="M 4.53125 0 L 4.53125 -42.171875 L 13.859375 -42.171875 L 13.859375 0 Z M 4.53125 0 "/></g></g></g><g fill="#fd6751" fill-opacity="1"><g transform="translate(337.988596, 42.865437)"><g><path d="M 13.421875 0 L 13.421875 -42.171875 L 22.6875 -42.171875 L 22.6875 0 Z M 1.15625 -34.4375 L 1.15625 -42.171875 L 35.015625 -42.171875 L 35.015625 -34.4375 Z M 1.15625 -34.4375 "/></g></g></g><path fill="#fd6751" d="M 89.007812 36.363281 C 88.101562 36.363281 87.367188 35.628906 87.367188 34.722656 L 87.367188 10.789062 C 87.367188 9.882812 88.101562 9.148438 89.007812 9.148438 C 89.914062 9.148438 90.648438 9.882812 90.648438 10.789062 L 90.652344 34.722656 C 90.652344 35.628906 89.914062 36.363281 89.007812 36.363281 Z M 89.007812 36.363281 " fill-opacity="1" fill-rule="nonzero"/><path fill="#fd6751" d="M 84.753906 36.363281 C 83.84375 36.363281 83.109375 35.628906 83.109375 34.722656 L 83.109375 10.789062 C 83.109375 9.882812 83.84375 9.148438 84.75 9.148438 C 85.65625 9.148438 86.394531 9.882812 86.394531 10.789062 L 86.394531 34.722656 C 86.394531 35.628906 85.660156 36.363281 84.753906 36.363281 Z M 84.753906 36.363281 " fill-opacity="1" fill-rule="nonzero"/><g clip-path="url(#0907d7653f)"><path fill="#fd6751" d="M 80.496094 40.457031 C 79.585938 40.457031 78.851562 39.722656 78.851562 38.816406 L 78.851562 6.699219 C 78.851562 5.789062 79.585938 5.054688 80.492188 5.054688 C 81.398438 5.054688 82.136719 5.789062 82.136719 6.699219 L 82.136719 38.816406 C 82.136719 39.722656 81.402344 40.457031 80.496094 40.457031 Z M 80.496094 40.457031 " fill-opacity="1" fill-rule="nonzero"/></g><path fill="#fd6751" d="M 80.496094 26.859375 L 55.699219 26.859375 C 54.792969 26.859375 54.058594 26.125 54.058594 25.21875 L 54.058594 20.296875 C 54.058594 19.386719 54.792969 18.652344 55.699219 18.652344 L 80.496094 18.652344 C 81.402344 18.652344 82.136719 19.386719 82.136719 20.296875 L 82.136719 25.21875 C 82.136719 26.125 81.402344 26.859375 80.496094 26.859375 Z M 57.34375 23.578125 L 78.851562 23.578125 L 78.851562 21.9375 L 57.34375 21.9375 Z M 57.34375 23.578125 " fill-opacity="1" fill-rule="nonzero"/><g clip-path="url(#ee5c43625c)"><path fill="#fd6751" d="M 94.734375 28.503906 L 89.007812 28.503906 C 88.101562 28.503906 87.367188 27.769531 87.367188 26.863281 L 87.367188 18.648438 C 87.367188 17.742188 88.101562 17.007812 89.007812 17.007812 L 94.734375 17.007812 C 95.640625 17.007812 96.375 17.742188 96.375 18.648438 L 96.375 26.863281 C 96.375 27.769531 95.640625 28.503906 94.734375 28.503906 Z M 90.648438 25.21875 L 93.09375 25.21875 L 93.09375 20.289062 L 90.648438 20.289062 Z M 90.648438 25.21875 " fill-opacity="1" fill-rule="nonzero"/></g><path fill="#fd6751" d="M 47.183594 36.363281 C 46.277344 36.363281 45.542969 35.628906 45.542969 34.722656 L 45.542969 10.792969 C 45.542969 9.882812 46.277344 9.148438 47.183594 9.148438 C 48.09375 9.148438 48.828125 9.882812 48.828125 10.792969 L 48.828125 34.722656 C 48.828125 35.628906 48.09375 36.363281 47.183594 36.363281 Z M 47.183594 36.363281 " fill-opacity="1" fill-rule="nonzero"/><path fill="#fd6751" d="M 51.441406 36.363281 C 50.535156 36.363281 49.800781 35.628906 49.800781 34.722656 L 49.800781 10.792969 C 49.800781 9.882812 50.535156 9.148438 51.441406 9.148438 C 52.351562 9.148438 53.085938 9.882812 53.085938 10.792969 L 53.085938 34.722656 C 53.085938 35.628906 52.347656 36.363281 51.441406 36.363281 Z M 51.441406 36.363281 " fill-opacity="1" fill-rule="nonzero"/><g clip-path="url(#e5bd4151bd)"><path fill="#fd6751" d="M 55.699219 40.457031 C 54.792969 40.457031 54.058594 39.722656 54.058594 38.816406 L 54.058594 6.699219 C 54.058594 5.789062 54.792969 5.054688 55.699219 5.054688 C 56.605469 5.054688 57.34375 5.789062 57.34375 6.699219 L 57.34375 38.816406 C 57.34375 39.722656 56.609375 40.457031 55.699219 40.457031 Z M 55.699219 40.457031 " fill-opacity="1" fill-rule="nonzero"/></g><g clip-path="url(#9e10b7228a)"><path fill="#fd6751" d="M 47.183594 28.507812 L 41.460938 28.507812 C 40.554688 28.507812 39.820312 27.773438 39.820312 26.863281 L 39.820312 18.648438 C 39.820312 17.742188 40.554688 17.007812 41.460938 17.007812 L 47.183594 17.007812 C 48.09375 17.007812 48.828125 17.742188 48.828125 18.648438 L 48.828125 26.863281 C 48.828125 27.773438 48.09375 28.507812 47.183594 28.507812 Z M 43.101562 25.222656 L 45.542969 25.222656 L 45.542969 20.289062 L 43.101562 20.289062 Z M 43.101562 25.222656 " fill-opacity="1" fill-rule="nonzero"/></g><path stroke-linecap="round" transform="matrix(0, 1.056837, -1.056837, 0, 70.108111, 4.520271)" fill="none" stroke-linejoin="miter" d="M 1.998929 1.998433 L 12.898939 1.998433 " stroke="#fd6751" stroke-width="4" stroke-opacity="1" stroke-miterlimit="4"/></svg>