<svg width="187" height="51" viewBox="0 0 187 51" fill="none" xmlns="http://www.w3.org/2000/svg">
<g clip-path="url(#clip0_11_2)">
<path d="M30.3684 16.8193L30.3684 11.3912C30.3684 11.0827 30.1954 10.7869 29.8875 10.5688C29.5795 10.3506 29.1618 10.2281 28.7263 10.2281L4.64211 10.2281C4.42647 10.2281 4.21293 10.2582 4.01371 10.3166C3.81448 10.3751 3.63345 10.4607 3.48097 10.5688C3.32848 10.6768 3.20753 10.805 3.125 10.9461C3.04248 11.0872 3.00001 11.2385 3.00001 11.3912L3.00001 16.8193C3.00001 16.972 3.04248 17.1233 3.125 17.2644C3.20753 17.4055 3.32848 17.5338 3.48097 17.6418C3.63345 17.7498 3.81448 17.8355 4.0137 17.8939C4.21293 17.9524 4.42647 17.9825 4.64211 17.9825L28.7263 17.9825C29.1618 17.9825 29.5795 17.8599 29.8875 17.6418C30.1954 17.4236 30.3684 17.1278 30.3684 16.8193ZM30.3684 40.0825L30.3684 34.6544C30.3684 34.3459 30.1954 34.05 29.8875 33.8319C29.5795 33.6138 29.1618 33.4912 28.7263 33.4912L4.64211 33.4912C4.42647 33.4912 4.21293 33.5213 4.0137 33.5798C3.81447 33.6382 3.63345 33.7239 3.48097 33.8319C3.32848 33.9399 3.20752 34.0681 3.125 34.2093C3.04248 34.3504 3.00001 34.5016 3.00001 34.6544L3.00001 40.0825C3.00001 40.2352 3.04248 40.3865 3.125 40.5276C3.20752 40.6687 3.32848 40.7969 3.48097 40.9049C3.63345 41.0129 3.81447 41.0986 4.0137 41.1571C4.21293 41.2155 4.42647 41.2456 4.64211 41.2456L28.7263 41.2456C29.1618 41.2456 29.5795 41.1231 29.8875 40.9049C30.1954 40.6868 30.3684 40.3909 30.3684 40.0825Z" stroke="#FD6751" stroke-width="4.10526" stroke-linecap="round" stroke-linejoin="round"/>
<path d="M16.6842 19.615L16.6842 33.0831M10.1158 2.47369L23.2526 2.47369C23.6882 2.47369 24.1058 2.62848 24.4138 2.90402C24.7217 3.17956 24.8947 3.55327 24.8947 3.94294L24.8947 8.35069C24.8947 8.74036 24.7217 9.11407 24.4138 9.38961C24.1058 9.66515 23.6882 9.81995 23.2526 9.81995L10.1158 9.81995C9.68029 9.81995 9.26261 9.66515 8.95466 9.38961C8.6467 9.11407 8.4737 8.74036 8.4737 8.35069L8.4737 3.94294C8.4737 3.55327 8.6467 3.17956 8.95466 2.90402C9.26261 2.62848 9.68029 2.47369 10.1158 2.47369ZM10.1158 49L23.2526 49C23.6882 49 24.1058 48.8452 24.4138 48.5697C24.7217 48.2941 24.8947 47.9204 24.8947 47.5307L24.8947 43.123C24.8947 42.7333 24.7217 42.3596 24.4138 42.0841C24.1058 41.8085 23.6882 41.6537 23.2526 41.6537L10.1158 41.6537C9.68029 41.6537 9.26261 41.8085 8.95465 42.0841C8.6467 42.3596 8.47369 42.7333 8.47369 43.123L8.47369 47.5307C8.47369 47.9204 8.6467 48.2941 8.95465 48.5697C9.26261 48.8452 9.68029 49 10.1158 49Z" stroke="#FD6751" stroke-width="4.10526" stroke-linecap="round" stroke-linejoin="round"/>
<path d="M30.3684 27.7895C31.5021 27.7895 32.4211 26.8705 32.4211 25.7368C32.4211 24.6032 31.5021 23.6842 30.3684 23.6842L30.3684 27.7895ZM16.6842 27.7895L30.3684 27.7895L30.3684 23.6842L16.6842 23.6842L16.6842 27.7895Z" fill="#FD6751"/>
<path d="M64.1486 38H58.4424V10.6476H74.1205V15.3997H64.1486V22.4529H73.4282V27.1863H64.1486V38ZM84.7284 17.0835V38H79.0222V17.0835H84.7284ZM81.8847 8.88898C82.7328 8.88898 83.4624 9.08854 84.0736 9.48767C84.6848 9.87432 84.9903 10.604 84.9903 11.6766C84.9903 12.7368 84.6848 13.4727 84.0736 13.8843C83.4624 14.2834 82.7328 14.4829 81.8847 14.4829C81.0241 14.4829 80.2882 14.2834 79.677 13.8843C79.0783 13.4727 78.779 12.7368 78.779 11.6766C78.779 10.604 79.0783 9.87432 79.677 9.48767C80.2882 9.08854 81.0241 8.88898 81.8847 8.88898ZM99.5458 33.8279C100.169 33.8279 100.774 33.7656 101.361 33.6408C101.959 33.5161 102.552 33.3602 103.138 33.1731V37.42C102.527 37.6944 101.766 37.9189 100.855 38.0935C99.9574 38.2806 98.9721 38.3742 97.8995 38.3742C96.6522 38.3742 95.5297 38.1746 94.5319 37.7755C93.5465 37.3639 92.767 36.6592 92.1933 35.6614C91.632 34.6511 91.3514 33.2479 91.3514 31.4519V21.3678H88.6199V18.9544L91.7629 17.0461L93.4093 12.6308H97.0576V17.0835H102.913V21.3678H97.0576V31.4519C97.0576 32.2501 97.2821 32.8488 97.7311 33.2479C98.1926 33.6346 98.7975 33.8279 99.5458 33.8279ZM116.571 10.6476C120.101 10.6476 122.676 11.4084 124.298 12.9301C125.919 14.4393 126.73 16.5222 126.73 19.1789C126.73 20.3762 126.549 21.5237 126.187 22.6213C125.826 23.7064 125.233 24.673 124.41 25.5212C123.599 26.3693 122.514 27.0428 121.155 27.5417C119.795 28.0282 118.118 28.2714 116.122 28.2714H113.634V38H107.834V10.6476H116.571ZM116.272 15.3997H113.634V23.5193H115.542C116.627 23.5193 117.569 23.3759 118.367 23.089C119.165 22.8022 119.783 22.3531 120.219 21.742C120.656 21.1308 120.874 20.3451 120.874 19.3847C120.874 18.0376 120.5 17.0398 119.751 16.3912C119.003 15.7302 117.843 15.3997 116.272 15.3997ZM137.151 38H131.444V8.88898H137.151V38ZM151.725 16.6532C154.531 16.6532 156.683 17.2643 158.179 18.4866C159.676 19.709 160.425 21.5674 160.425 24.0619V38H156.44L155.336 35.1563H155.186C154.587 35.9046 153.976 36.5158 153.353 36.9897C152.729 37.4637 152.012 37.8129 151.201 38.0374C150.39 38.2619 149.405 38.3742 148.245 38.3742C147.01 38.3742 145.9 38.1372 144.915 37.6632C143.942 37.1893 143.175 36.4659 142.614 35.493C142.052 34.5077 141.772 33.2604 141.772 31.7512C141.772 29.5311 142.551 27.8972 144.11 26.8495C145.669 25.7893 148.008 25.2031 151.126 25.0909L154.756 24.9786V24.0619C154.756 22.9643 154.469 22.1598 153.895 21.6484C153.321 21.1371 152.523 20.8814 151.5 20.8814C150.49 20.8814 149.499 21.0248 148.526 21.3117C147.553 21.5985 146.58 21.9603 145.607 22.3968L143.718 18.5428C144.828 17.9566 146.069 17.4951 147.441 17.1583C148.825 16.8215 150.253 16.6532 151.725 16.6532ZM154.756 28.3088L152.548 28.3836C150.702 28.4335 149.417 28.764 148.694 29.3752C147.983 29.9864 147.628 30.7908 147.628 31.7887C147.628 32.6617 147.883 33.2854 148.395 33.6595C148.906 34.0212 149.573 34.2021 150.397 34.2021C151.619 34.2021 152.648 33.8404 153.484 33.117C154.332 32.3936 154.756 31.3646 154.756 30.03V28.3088ZM178.198 16.6906C180.431 16.6906 182.227 17.3017 183.586 18.5241C184.946 19.7339 185.625 21.6796 185.625 24.3612V38H179.919V25.7831C179.919 24.2864 179.645 23.1576 179.096 22.3968C178.56 21.636 177.712 21.2556 176.552 21.2556C174.805 21.2556 173.614 21.848 172.978 23.0329C172.342 24.2178 172.024 25.9265 172.024 28.1591V38H166.318V17.0835H170.677L171.444 19.7588H171.762C172.211 19.0354 172.766 18.4492 173.427 18.0002C174.101 17.5512 174.843 17.2207 175.654 17.0086C176.477 16.7966 177.325 16.6906 178.198 16.6906Z" fill="#432622"/>
</g>
<defs>
<clipPath id="clip0_11_2">
<rect width="187" height="51" fill="white"/>
</clipPath>
</defs>
</svg>
