<svg width="33" height="52" viewBox="0 0 33 52" fill="none" xmlns="http://www.w3.org/2000/svg">
<g clip-path="url(#clip0_11_2)">
<path d="M30.3684 16.8193L30.3684 11.3912C30.3684 11.0827 30.1954 10.7869 29.8875 10.5688C29.5795 10.3506 29.1618 10.2281 28.7263 10.2281L4.64211 10.2281C4.42647 10.2281 4.21293 10.2582 4.01371 10.3166C3.81448 10.3751 3.63345 10.4607 3.48097 10.5688C3.32848 10.6768 3.20753 10.805 3.125 10.9461C3.04248 11.0872 3.00001 11.2385 3.00001 11.3912L3.00001 16.8193C3.00001 16.972 3.04248 17.1233 3.125 17.2644C3.20753 17.4055 3.32848 17.5338 3.48097 17.6418C3.63345 17.7498 3.81448 17.8355 4.0137 17.8939C4.21293 17.9524 4.42647 17.9825 4.64211 17.9825L28.7263 17.9825C29.1618 17.9825 29.5795 17.8599 29.8875 17.6418C30.1954 17.4236 30.3684 17.1278 30.3684 16.8193ZM30.3684 40.0825L30.3684 34.6544C30.3684 34.3459 30.1954 34.05 29.8875 33.8319C29.5795 33.6138 29.1618 33.4912 28.7263 33.4912L4.64211 33.4912C4.42647 33.4912 4.21293 33.5213 4.0137 33.5798C3.81447 33.6382 3.63345 33.7239 3.48097 33.8319C3.32848 33.9399 3.20752 34.0681 3.125 34.2093C3.04248 34.3504 3.00001 34.5016 3.00001 34.6544L3.00001 40.0825C3.00001 40.2352 3.04248 40.3865 3.125 40.5276C3.20752 40.6687 3.32848 40.7969 3.48097 40.9049C3.63345 41.0129 3.81447 41.0986 4.0137 41.1571C4.21293 41.2155 4.42647 41.2456 4.64211 41.2456L28.7263 41.2456C29.1618 41.2456 29.5795 41.1231 29.8875 40.9049C30.1954 40.6868 30.3684 40.3909 30.3684 40.0825Z" stroke="#FD6751" stroke-width="4.10526" stroke-linecap="round" stroke-linejoin="round"/>
<path d="M16.6842 19.615L16.6842 33.0831M10.1158 2.47369L23.2526 2.47369C23.6881 2.47369 24.1058 2.62848 24.4138 2.90402C24.7217 3.17956 24.8947 3.55327 24.8947 3.94294L24.8947 8.35069C24.8947 8.74036 24.7217 9.11407 24.4138 9.38961C24.1058 9.66515 23.6881 9.81995 23.2526 9.81995L10.1158 9.81995C9.68028 9.81995 9.2626 9.66515 8.95465 9.38961C8.6467 9.11407 8.47369 8.74036 8.47369 8.35069L8.47369 3.94294C8.47369 3.55327 8.6467 3.17956 8.95465 2.90402C9.2626 2.62848 9.68028 2.47369 10.1158 2.47369ZM10.1158 49L23.2526 49C23.6881 49 24.1058 48.8452 24.4138 48.5697C24.7217 48.2941 24.8947 47.9204 24.8947 47.5307L24.8947 43.123C24.8947 42.7333 24.7217 42.3596 24.4138 42.0841C24.1058 41.8085 23.6881 41.6537 23.2526 41.6537L10.1158 41.6537C9.68028 41.6537 9.2626 41.8085 8.95465 42.0841C8.64669 42.3596 8.47369 42.7333 8.47369 43.123L8.47369 47.5307C8.47369 47.9204 8.64669 48.2941 8.95465 48.5697C9.2626 48.8452 9.68028 49 10.1158 49Z" stroke="#FD6751" stroke-width="4.10526" stroke-linecap="round" stroke-linejoin="round"/>
<path d="M30.3684 27.7895C31.5021 27.7895 32.4211 26.8705 32.4211 25.7368C32.4211 24.6032 31.5021 23.6842 30.3684 23.6842L30.3684 27.7895ZM16.6842 27.7895L30.3684 27.7895L30.3684 23.6842L16.6842 23.6842L16.6842 27.7895Z" fill="#FD6751"/>
</g>
<defs>
<clipPath id="clip0_11_2">
<rect width="33" height="52" fill="white"/>
</clipPath>
</defs>
</svg>
