<svg xmlns="http://www.w3.org/2000/svg" xmlns:xlink="http://www.w3.org/1999/xlink" width="500" zoomAndPan="magnify" viewBox="0 0 375 374.999991" height="500" preserveAspectRatio="xMidYMid meet" version="1.0"><defs><clipPath id="388005286b"><path d="M 258 72.394531 L 281 72.394531 L 281 307 L 258 307 Z M 258 72.394531 " clip-rule="nonzero"/></clipPath><clipPath id="ae7764e1a8"><path d="M 94 72.394531 L 117 72.394531 L 117 307 L 94 307 Z M 94 72.394531 " clip-rule="nonzero"/></clipPath></defs><path fill="#fd6751" d="M 325.503906 279.058594 C 319.515625 279.058594 314.667969 274.210938 314.667969 268.21875 L 314.664062 110.167969 C 314.664062 104.175781 319.515625 99.324219 325.5 99.324219 C 331.484375 99.324219 336.339844 104.171875 336.339844 110.167969 L 336.347656 268.21875 C 336.347656 274.210938 331.492188 279.058594 325.503906 279.058594 Z M 325.503906 279.058594 " fill-opacity="1" fill-rule="nonzero"/><path fill="#fd6751" d="M 297.390625 279.058594 C 291.402344 279.058594 286.554688 274.210938 286.554688 268.21875 L 286.546875 110.167969 C 286.546875 104.175781 291.394531 99.324219 297.382812 99.324219 C 303.371094 99.324219 308.226562 104.171875 308.226562 110.167969 L 308.234375 268.21875 C 308.230469 274.210938 303.378906 279.058594 297.390625 279.058594 Z M 297.390625 279.058594 " fill-opacity="1" fill-rule="nonzero"/><g clip-path="url(#388005286b)"><path fill="#fd6751" d="M 269.273438 306.082031 C 263.285156 306.082031 258.429688 301.234375 258.429688 295.242188 L 258.429688 83.140625 C 258.429688 77.152344 263.28125 72.304688 269.265625 72.304688 C 275.253906 72.304688 280.109375 77.152344 280.109375 83.140625 L 280.117188 295.242188 C 280.117188 301.234375 275.261719 306.082031 269.273438 306.082031 Z M 269.273438 306.082031 " fill-opacity="1" fill-rule="nonzero"/></g><path fill="#fd6751" d="M 269.273438 216.296875 L 105.542969 216.296875 C 99.554688 216.296875 94.699219 211.449219 94.699219 205.464844 L 94.699219 172.945312 C 94.699219 166.949219 99.554688 162.101562 105.542969 162.101562 L 269.273438 162.101562 C 275.261719 162.101562 280.117188 166.949219 280.117188 172.945312 L 280.117188 205.464844 C 280.117188 211.449219 275.261719 216.296875 269.273438 216.296875 Z M 116.378906 194.625 L 258.429688 194.625 L 258.429688 183.78125 L 116.378906 183.78125 Z M 116.378906 194.625 " fill-opacity="1" fill-rule="nonzero"/><path fill="#fd6751" d="M 363.304688 227.152344 L 325.5 227.152344 C 319.515625 227.152344 314.664062 222.300781 314.664062 216.308594 L 314.664062 162.070312 C 314.664062 156.078125 319.515625 151.230469 325.5 151.230469 L 363.304688 151.230469 C 369.292969 151.230469 374.148438 156.078125 374.148438 162.070312 L 374.148438 216.308594 C 374.148438 222.304688 369.292969 227.152344 363.304688 227.152344 Z M 336.339844 205.464844 L 352.46875 205.464844 L 352.46875 172.910156 L 336.339844 172.910156 Z M 336.339844 205.464844 " fill-opacity="1" fill-rule="nonzero"/><path fill="#fd6751" d="M 49.304688 279.058594 C 43.316406 279.058594 38.464844 274.210938 38.464844 268.21875 L 38.464844 110.175781 C 38.464844 104.1875 43.316406 99.335938 49.304688 99.335938 C 55.292969 99.335938 60.148438 104.1875 60.148438 110.175781 L 60.148438 268.21875 C 60.148438 274.210938 55.292969 279.058594 49.304688 279.058594 Z M 49.304688 279.058594 " fill-opacity="1" fill-rule="nonzero"/><path fill="#fd6751" d="M 77.421875 279.058594 C 71.433594 279.058594 66.578125 274.210938 66.578125 268.21875 L 66.578125 110.175781 C 66.578125 104.1875 71.433594 99.335938 77.421875 99.335938 C 83.410156 99.335938 88.265625 104.1875 88.265625 110.175781 L 88.265625 268.21875 C 88.265625 274.210938 83.410156 279.058594 77.421875 279.058594 Z M 77.421875 279.058594 " fill-opacity="1" fill-rule="nonzero"/><g clip-path="url(#ae7764e1a8)"><path fill="#fd6751" d="M 105.542969 306.082031 C 99.554688 306.082031 94.699219 301.234375 94.699219 295.242188 L 94.695312 83.140625 C 94.695312 77.152344 99.550781 72.304688 105.539062 72.304688 C 111.527344 72.304688 116.378906 77.152344 116.378906 83.140625 L 116.378906 295.242188 C 116.378906 301.234375 111.53125 306.082031 105.542969 306.082031 Z M 105.542969 306.082031 " fill-opacity="1" fill-rule="nonzero"/></g><path fill="#fd6751" d="M 49.304688 227.164062 L 11.503906 227.164062 C 5.515625 227.164062 0.660156 222.3125 0.660156 216.320312 L 0.660156 162.070312 C 0.660156 156.078125 5.515625 151.230469 11.503906 151.230469 L 49.304688 151.230469 C 55.292969 151.230469 60.148438 156.078125 60.148438 162.070312 L 60.148438 216.320312 C 60.148438 222.316406 55.292969 227.164062 49.304688 227.164062 Z M 22.339844 205.480469 L 38.464844 205.480469 L 38.464844 172.910156 L 22.339844 172.910156 Z M 22.339844 205.480469 " fill-opacity="1" fill-rule="nonzero"/><path stroke-linecap="round" transform="matrix(0, 6.97918, -6.97918, 0, 200.684523, 68.764771)" fill="none" stroke-linejoin="miter" d="M 1.999932 1.999943 L 12.897299 1.999943 " stroke="#fd6751" stroke-width="4" stroke-opacity="1" stroke-miterlimit="4"/></svg>